<svg width="47" height="61" viewBox="0 0 47 61" fill="none" xmlns="http://www.w3.org/2000/svg">
<path d="M43.6295 14.9886C43.5777 14.3569 43.061 13.8729 42.4452 13.8791H33.444V10.3665C33.444 4.64112 28.9365 0 23.377 0C17.817 0 13.3099 4.64112 13.3099 10.3665V13.8791H4.30877C3.69577 13.8814 3.18409 14.3607 3.12441 14.9886L0.0214741 51.7231C-0.119631 53.4262 0.439239 55.1127 1.56299 56.3718C2.68629 57.6305 4.27083 58.3465 5.93125 58.3451H40.8343C42.4947 58.3465 44.0792 57.6305 45.2025 56.3718C46.3263 55.1127 46.8856 53.4262 46.7445 51.7231L43.6295 14.9886ZM15.6786 10.3665C15.6786 5.98839 19.1253 2.43918 23.377 2.43918C27.6286 2.43918 31.0753 5.98839 31.0753 10.3665V13.8791H15.6786V10.3665ZM43.4519 54.723C42.782 55.4824 41.8303 55.9126 40.8343 55.9059H5.91922C4.92315 55.9064 3.97289 55.4762 3.29928 54.7206C2.62614 53.9646 2.29165 52.9522 2.37817 51.9303L5.38626 16.3182H13.3099V23.9283C11.4052 24.5319 10.2158 26.479 10.5123 28.5084C10.8084 30.5374 12.5017 32.0381 14.4943 32.0381C16.4869 32.0381 18.1797 30.5374 18.4762 28.5084C18.7723 26.479 17.5829 24.5319 15.6786 23.9283V16.3059H31.0753V23.9283C29.1706 24.5319 27.9812 26.479 28.2777 28.5084C28.5738 30.5374 30.2671 32.0381 32.2597 32.0381C34.2523 32.0381 35.9451 30.5374 36.2416 28.5084C36.5377 26.479 35.3483 24.5319 33.444 23.9283V16.3059H41.3557L44.3638 51.9179C44.4609 52.9441 44.1292 53.9641 43.4519 54.723V54.723ZM14.3166 26.1969C14.4346 26.2131 14.5539 26.2131 14.6719 26.1969C15.5477 26.2941 16.1973 27.0802 16.1501 27.9858C16.1024 28.8919 15.3751 29.6018 14.4943 29.6018C13.6129 29.6018 12.8857 28.8919 12.8385 27.9858C12.7913 27.0802 13.4404 26.2941 14.3166 26.1969ZM32.082 26.1969C32.2 26.2131 32.3194 26.2131 32.4373 26.1969C33.3131 26.2941 33.9627 27.0802 33.9155 27.9858C33.8678 28.8919 33.1405 29.6018 32.2597 29.6018C31.3783 29.6018 30.6511 28.8919 30.6039 27.9858C30.5567 27.0802 31.2058 26.2941 32.082 26.1969V26.1969Z" fill="black"/>
<path d="M22.8591 46.1189C22.0191 46.1189 21.2631 45.9749 20.5911 45.6869C19.9191 45.3869 19.3911 44.9669 19.0071 44.4269C18.6231 43.8869 18.4311 43.2569 18.4311 42.5369H20.6271C20.6751 43.0769 20.8851 43.5209 21.2571 43.8689C21.6411 44.2169 22.1751 44.3909 22.8591 44.3909C23.5671 44.3909 24.1191 44.2229 24.5151 43.8869C24.9111 43.5389 25.1091 43.0949 25.1091 42.5549C25.1091 42.1349 24.9831 41.7929 24.7311 41.5289C24.4911 41.2649 24.1851 41.0609 23.8131 40.9169C23.4531 40.7729 22.9491 40.6169 22.3011 40.4489C21.4851 40.2329 20.8191 40.0169 20.3031 39.8009C19.7991 39.5729 19.3671 39.2249 19.0071 38.7569C18.6471 38.2889 18.4671 37.6649 18.4671 36.8849C18.4671 36.1649 18.6471 35.5349 19.0071 34.9949C19.3671 34.4549 19.8711 34.0409 20.5191 33.7529C21.1671 33.4649 21.9171 33.3209 22.7691 33.3209C23.9811 33.3209 24.9711 33.6269 25.7391 34.2389C26.5191 34.8389 26.9511 35.6669 27.0351 36.7229H24.7671C24.7311 36.2669 24.5151 35.8769 24.1191 35.5529C23.7231 35.2289 23.2011 35.0669 22.5531 35.0669C21.9651 35.0669 21.4851 35.2169 21.1131 35.5169C20.7411 35.8169 20.5551 36.2489 20.5551 36.8129C20.5551 37.1969 20.6691 37.5149 20.8971 37.7669C21.1371 38.0069 21.4371 38.1989 21.7971 38.3429C22.1571 38.4869 22.6491 38.6429 23.2731 38.8109C24.1011 39.0389 24.7731 39.2669 25.2891 39.4949C25.8171 39.7229 26.2611 40.0769 26.6211 40.5569C26.9931 41.0249 27.1791 41.6549 27.1791 42.4469C27.1791 43.0829 27.0051 43.6829 26.6571 44.2469C26.3211 44.8109 25.8231 45.2669 25.1631 45.6149C24.5151 45.9509 23.7471 46.1189 22.8591 46.1189Z" fill="#FF7158"/>
</svg>
